<?xml version="1.0" encoding="UTF-8" standalone="no"?>
<!-- Created with Inkscape (http://www.inkscape.org/) -->

<svg
   width="52.617722mm"
   height="9.8777771mm"
   viewBox="0 0 52.617722 9.8777771"
   version="1.1"
   id="svg361353"
   xmlns="http://www.w3.org/2000/svg"
   xmlns:svg="http://www.w3.org/2000/svg">
  <defs
     id="defs361350">
    <clipPath
       id="clipPath32"
       clipPathUnits="userSpaceOnUse">
      <path
         id="path34"
         d="M 0,792 H 612 V 0 H 0 Z" />
    </clipPath>
  </defs>
  <g
     id="layer1">
    <g
       id="g361569"
       transform="translate(47.7745,-13.71159)">
      <g
         id="g28"
         transform="matrix(0.35277777,0,0,-0.35277777,-60.4745,278.98294)">
        <g
           clip-path="url(#clipPath32)"
           id="g30">
          <g
             transform="translate(63.5469,744.8833)"
             id="g36">
            <path
               id="path38"
               style="fill:#ffffff;fill-opacity:1;fill-rule:nonzero;stroke:none"
               d="M 0,0 C 0,1.062 -0.048,1.858 -0.097,2.774 H 0.965 L 1.061,0.723 H 1.11 C 1.833,2.05 2.943,3.04 4.848,3.04 6.464,3.04 7.695,1.978 8.177,0.506 h 0.048 c 0.338,0.7 0.748,1.207 1.182,1.569 0.748,0.626 1.544,0.965 2.774,0.965 1.134,0 3.763,-0.628 3.763,-5.018 V -8.804 H 14.81 v 6.706 C 14.81,0.506 13.797,2.05 11.795,2.05 10.348,2.05 9.19,0.989 8.756,-0.24 8.635,-0.579 8.539,-0.965 8.539,-1.375 V -8.804 H 7.405 v 7.237 C 7.405,0.531 6.392,2.05 4.534,2.05 2.967,2.05 1.761,0.796 1.327,-0.554 1.206,-0.868 1.134,-1.278 1.134,-1.664 v -7.14 H 0 Z" />
          </g>
          <g
             transform="translate(90.4844,738.8291)"
             id="g40">
            <path
               id="path42"
               style="fill:#ffffff;fill-opacity:1;fill-rule:nonzero;stroke:none"
               d="m 0,0 c 0,-0.917 0.048,-1.858 0.169,-2.75 h -1.037 l -0.169,1.664 H -1.11 c -0.554,-0.892 -1.833,-1.929 -3.69,-1.929 -2.315,0 -3.401,1.639 -3.401,3.183 0,2.678 2.364,4.294 7.067,4.246 v 0.29 c 0,1.157 -0.217,3.449 -2.966,3.424 -1.014,0 -2.075,-0.265 -2.895,-0.868 l -0.362,0.844 c 1.037,0.7 2.34,0.989 3.377,0.989 C -0.627,9.093 0,6.585 0,4.51 Z m -1.134,3.449 c -2.532,0.073 -5.861,-0.314 -5.861,-3.087 0,-1.665 1.109,-2.413 2.316,-2.413 1.929,0 3.015,1.182 3.425,2.316 0.072,0.241 0.12,0.482 0.12,0.699 z" />
          </g>
          <g
             transform="translate(95.8369,750.2144)"
             id="g44">
            <path
               id="path46"
               style="fill:#ffffff;fill-opacity:1;fill-rule:nonzero;stroke:none"
               d="M 0,0 V -2.557 H 3.305 V -3.474 H 0 V -11 c 0,-1.471 0.458,-2.412 1.688,-2.412 0.603,0 1.037,0.097 1.327,0.194 L 3.16,-14.111 C 2.774,-14.28 2.243,-14.4 1.544,-14.4 c -0.845,0 -1.544,0.289 -1.979,0.844 -0.53,0.603 -0.723,1.568 -0.723,2.75 v 7.332 h -1.954 v 0.917 h 1.954 v 2.123 z" />
          </g>
          <g
             transform="translate(103.2881,750.2144)"
             id="g48">
            <path
               id="path50"
               style="fill:#ffffff;fill-opacity:1;fill-rule:nonzero;stroke:none"
               d="M 0,0 V -2.557 H 3.305 V -3.474 H 0 V -11 c 0,-1.471 0.458,-2.412 1.688,-2.412 0.603,0 1.037,0.097 1.327,0.194 L 3.16,-14.111 C 2.774,-14.28 2.243,-14.4 1.544,-14.4 c -0.845,0 -1.544,0.289 -1.979,0.844 -0.53,0.603 -0.723,1.568 -0.723,2.75 v 7.332 h -1.954 v 0.917 h 1.954 v 2.123 z" />
          </g>
          <g
             transform="translate(108.4536,738.8662)"
             id="g52">
            <path
               id="path54"
               style="fill:#ffffff;fill-opacity:1;fill-rule:nonzero;stroke:none"
               d="m 0,0 c 0.728,-0.373 1.846,-0.745 3,-0.745 1.243,0 1.9,0.515 1.9,1.295 0,0.746 -0.568,1.172 -2.007,1.687 -1.988,0.693 -3.284,1.793 -3.284,3.532 0,2.042 1.704,3.604 4.528,3.604 1.349,0 2.343,-0.284 3.053,-0.603 L 6.586,6.587 C 6.107,6.817 5.255,7.154 4.083,7.154 2.911,7.154 2.343,6.622 2.343,6.001 2.343,5.237 3.018,4.9 4.562,4.314 6.675,3.533 7.669,2.432 7.669,0.746 c 0,-2.007 -1.545,-3.729 -4.829,-3.729 -1.367,0 -2.716,0.373 -3.39,0.746 z" />
          </g>
          <g
             transform="translate(117.9502,747.8848)"
             id="g56">
            <path
               id="path58"
               style="fill:#ffffff;fill-opacity:1;fill-rule:nonzero;stroke:none"
               d="m 0,0 c 0.834,0.142 2.006,0.248 3.657,0.248 1.669,0 2.858,-0.319 3.657,-0.958 0.763,-0.604 1.278,-1.598 1.278,-2.77 0,-1.172 -0.39,-2.166 -1.101,-2.841 -0.923,-0.869 -2.29,-1.26 -3.887,-1.26 -0.355,0 -0.675,0.018 -0.924,0.054 v -4.279 H 0 Z m 2.68,-5.433 c 0.231,-0.053 0.515,-0.07 0.906,-0.07 1.437,0 2.326,0.727 2.326,1.952 0,1.1 -0.764,1.758 -2.113,1.758 -0.55,0 -0.924,-0.053 -1.119,-0.107 z" />
          </g>
          <g
             transform="translate(129.9849,739.1504)"
             id="g60">
            <path
               id="path62"
               style="fill:#ffffff;fill-opacity:1;fill-rule:nonzero;stroke:none"
               d="M 0,0 -0.852,-3.071 H -3.657 L 0,8.894 H 3.551 L 7.261,-3.071 H 4.349 L 3.426,0 Z M 3.035,2.024 2.29,4.562 C 2.077,5.272 1.864,6.16 1.686,6.87 H 1.651 C 1.473,6.16 1.296,5.255 1.1,4.562 L 0.391,2.024 Z" />
          </g>
          <g
             transform="translate(141.6284,739.1504)"
             id="g64">
            <path
               id="path66"
               style="fill:#ffffff;fill-opacity:1;fill-rule:nonzero;stroke:none"
               d="M 0,0 -0.852,-3.071 H -3.657 L 0,8.894 H 3.551 L 7.261,-3.071 H 4.35 L 3.426,0 Z M 3.036,2.024 2.29,4.562 C 2.077,5.272 1.864,6.16 1.686,6.87 H 1.651 C 1.474,6.16 1.296,5.255 1.1,4.562 L 0.391,2.024 Z" />
          </g>
          <g
             transform="translate(150.4849,736.0791)"
             id="g68">
            <path
               id="path70"
               style="fill:#ffffff;fill-opacity:1;fill-rule:nonzero;stroke:none"
               d="M 0,0 V 11.965 H 3.16 L 5.645,7.58 C 6.355,6.32 7.066,4.829 7.598,3.48 H 7.651 C 7.474,5.059 7.42,6.675 7.42,8.486 v 3.479 H 9.905 V 0 H 7.066 L 4.509,4.616 C 3.799,5.894 3.018,7.438 2.432,8.84 L 2.379,8.823 C 2.45,7.243 2.485,5.556 2.485,3.604 V 0 Z" />
          </g>
          <g
             transform="translate(169.8506,741.1382)"
             id="g72">
            <path
               id="path74"
               style="fill:#ffffff;fill-opacity:1;fill-rule:nonzero;stroke:none"
               d="M 0,0 H -4.402 V -2.84 H 0.515 V -5.059 H -7.119 V 6.906 H 0.266 V 4.687 H -4.402 V 2.202 H 0 Z" />
          </g>
          <g
             transform="translate(182.3296,740.6592)"
             id="g76">
            <path
               id="path78"
               style="fill:#ffffff;fill-opacity:1;fill-rule:nonzero;stroke:none"
               d="M 0,0 C -0.054,1.438 -0.107,3.177 -0.107,4.918 H -0.16 C -0.533,3.39 -1.03,1.686 -1.491,0.284 L -2.947,-4.385 H -5.059 L -6.338,0.23 c -0.39,1.421 -0.799,3.125 -1.083,4.688 H -7.456 C -7.527,3.302 -7.58,1.455 -7.67,-0.036 L -7.882,-4.58 h -2.503 l 0.763,11.965 h 3.604 L -4.847,3.39 c 0.373,-1.366 0.746,-2.875 1.013,-4.278 h 0.053 c 0.337,1.385 0.745,2.965 1.136,4.296 l 1.279,3.977 H 2.165 L 2.823,-4.58 H 0.177 Z" />
          </g>
          <g
             transform="translate(38.856,747.1753)"
             id="g80">
            <path
               id="path82"
               style="fill:#ffffff;fill-opacity:1;fill-rule:nonzero;stroke:none"
               d="M 0,0 C 2.159,0.371 4.182,0.587 6.066,0.646 V -8.207 C 4.065,-8.27 2.041,-8.464 0,-8.79 Z m 14.988,-0.03 v -8.769 c -2.063,0.327 -4.085,0.521 -6.067,0.585 v 8.86 c 1.923,-0.08 3.945,-0.305 6.067,-0.676 m 2.854,2.313 C 14.79,2.929 11.817,3.3 8.921,3.399 V 4.775 H 6.066 V 3.399 C 3.132,3.322 0.156,2.948 -2.856,2.283 v -11.609 -2.263 -5.468 H 15.038 V -19.8 c -2.629,-0.483 -5.062,-0.723 -7.299,-0.723 -3.236,0 -6.768,0.445 -10.595,1.336 v -2.888 c 3.606,-0.767 7.093,-1.15 10.463,-1.15 3.369,0 6.799,0.383 10.286,1.151 v 7.873 H 0 v 2.587 c 2.628,0.451 5.062,0.676 7.298,0.676 3.237,0 6.718,-0.43 10.546,-1.29 z" />
          </g>
        </g>
      </g>
      <text
         y="22.479565"
         id="text84"
         style="font-style:normal;font-variant:normal;font-weight:normal;font-stretch:normal;font-size:4.23333px;line-height:0%;font-family:Lato;-inkscape-font-specification:Lato;letter-spacing:0.0635px;writing-mode:lr-tb;fill:#ffffff;fill-opacity:1;fill-rule:nonzero;stroke:none;stroke-width:0.352778"
         x="-37.896725"><tspan
           style="font-size:2.99861px;line-height:1.25;stroke-width:0.352778"
           id="tspan86"
           y="22.479565"
           x="-37.896725">senior front end web developer</tspan></text>
    </g>
  </g>
</svg>
